<?xml version="1.0" standalone="no"?>
<!DOCTYPE svg PUBLIC "-//W3C//DTD SVG 20010904//EN"
 "http://www.w3.org/TR/2001/REC-SVG-20010904/DTD/svg10.dtd">
<svg version="1.0" xmlns="http://www.w3.org/2000/svg"
 width="930.000000pt" height="930.000000pt" viewBox="0 0 930.000000 930.000000"
 preserveAspectRatio="xMidYMid meet">
<metadata>
Created by potrace 1.14, written by Peter Selinger 2001-2017
</metadata>
<g transform="translate(0.000000,930.000000) scale(0.100000,-0.100000)"
fill="#000000" stroke="none">
<path d="M0 4650 l0 -3080 105 0 105 0 0 3080 0 3080 -105 0 -105 0 0 -3080z"/>
<path d="M280 4650 l0 -3080 100 0 100 0 0 3080 0 3080 -100 0 -100 0 0 -3080z"/>
<path d="M550 4650 l0 -3080 105 0 105 0 0 2073 0 2072 -95 70 c-52 39 -95 75
-95 80 0 6 43 53 95 105 l95 95 0 832 0 833 -105 0 -105 0 0 -3080z"/>
<path d="M830 6935 c0 -437 4 -795 8 -795 5 0 19 12 33 26 13 14 54 51 92 81
l67 55 0 714 0 714 -100 0 -100 0 0 -795z"/>
<path d="M1100 7044 c0 -680 0 -686 20 -673 10 8 58 40 105 72 l85 58 0 615 0
614 -105 0 -105 0 0 -686z"/>
<path d="M1380 7140 c0 -324 2 -590 5 -590 2 0 49 25 105 56 l100 57 0 533 0
534 -105 0 -105 0 0 -590z"/>
<path d="M1650 7215 c0 -283 3 -515 8 -515 4 0 51 19 105 42 l97 41 0 474 0
473 -105 0 -105 0 0 -515z"/>
<path d="M1930 7271 l0 -459 103 33 102 32 3 427 2 426 -105 0 -105 0 0 -459z"/>
<path d="M2200 7315 c0 -389 1 -415 18 -415 9 0 55 7 102 15 47 8 86 15 88 15
1 0 2 180 2 400 l0 400 -105 0 -105 0 0 -415z"/>
<path d="M2480 7335 l0 -395 68 0 c37 0 84 -3 105 -6 l37 -7 0 402 0 401 -105
0 -105 0 0 -395z"/>
<path d="M2760 7321 l0 -408 45 -13 c25 -7 70 -28 100 -46 l55 -33 0 455 0
454 -100 0 -100 0 0 -409z"/>
<path d="M3030 7241 l0 -488 44 -65 c49 -74 101 -208 122 -316 21 -108 18
-290 -6 -416 -23 -117 -83 -329 -129 -454 -31 -83 -31 -84 -31 -288 0 -112 3
-204 6 -204 3 0 50 38 105 86 l99 85 0 1275 0 1274 -105 0 -105 0 0 -489z"/>
<path d="M3310 6484 l0 -1246 62 52 c35 29 80 67 100 85 l38 32 0 1161 0 1162
-100 0 -100 0 0 -1246z"/>
<path d="M3580 6599 c0 -1087 1 -1130 18 -1117 10 7 57 44 105 81 l87 69 0
1049 0 1049 -105 0 -105 0 0 -1131z"/>
<path d="M3860 6710 c0 -561 3 -1020 6 -1020 3 0 50 32 105 71 l99 71 0 949 0
949 -105 0 -105 0 0 -1020z"/>
<path d="M4130 6804 c0 -814 2 -925 15 -920 8 3 55 33 105 66 l90 61 0 859 0
860 -105 0 -105 0 0 -926z"/>
<path d="M4410 6895 c0 -459 3 -835 6 -835 3 0 51 25 105 56 l99 56 0 779 0
779 -105 0 -105 0 0 -835z"/>
<path d="M4680 6969 c0 -721 1 -761 18 -753 9 4 56 21 105 37 l87 30 0 724 0
723 -105 0 -105 0 0 -761z"/>
<path d="M4960 7010 l0 -720 43 0 c23 0 67 -7 97 -15 30 -8 58 -15 63 -15 4 0
7 331 7 735 l0 735 -105 0 -105 0 0 -720z"/>
<path d="M5230 6973 l0 -756 51 -54 c68 -72 128 -212 152 -353 2 -14 5 413 6
948 l1 972 -105 0 -105 0 0 -757z"/>
<path d="M5510 6349 l0 -1381 24 19 c13 10 60 50 104 88 l81 70 1 1293 0 1292
-105 0 -105 0 0 -1381z"/>
<path d="M5790 6469 c0 -1242 0 -1261 19 -1248 11 8 56 41 100 74 l80 60 1
1188 0 1187 -100 0 -100 0 0 -1261z"/>
<path d="M6060 6574 c0 -921 3 -1155 13 -1151 6 2 54 33 104 68 l93 64 0 1088
0 1087 -105 0 -105 0 0 -1156z"/>
<path d="M6340 6669 c0 -864 2 -1060 13 -1056 7 3 52 30 100 61 l87 56 0 1000
0 1000 -100 0 -100 0 0 -1061z"/>
<path d="M6610 6755 c0 -536 3 -975 7 -975 3 0 51 26 105 58 l98 57 0 918 0
917 -105 0 -105 0 0 -975z"/>
<path d="M6890 6835 l0 -894 103 50 102 50 3 844 2 845 -105 0 -105 0 0 -895z"/>
<path d="M7160 6902 c0 -456 2 -831 5 -834 3 -2 35 4 72 13 38 10 83 18 101
18 l32 1 0 815 0 815 -105 0 -105 0 0 -828z"/>
<path d="M7440 6920 l0 -810 23 0 c25 0 143 -25 170 -35 16 -7 17 36 17 824
l0 831 -105 0 -105 0 0 -810z"/>
<path d="M7710 6884 l0 -847 36 -40 c45 -49 81 -126 95 -203 25 -133 -12 -348
-90 -520 l-41 -92 0 -751 c0 -413 2 -751 5 -751 3 0 50 32 105 72 l100 71 0
1954 0 1953 -105 0 -105 0 0 -846z"/>
<path d="M7990 5804 l0 -1925 46 33 c25 18 71 53 102 78 l57 46 3 1847 2 1847
-105 0 -105 0 0 -1926z"/>
<path d="M8270 5915 c0 -998 2 -1815 4 -1815 2 0 37 27 78 60 41 34 83 60 96
60 l22 0 0 1755 0 1755 -100 0 -100 0 0 -1815z"/>
<path d="M8540 5971 l0 -1759 70 -70 c51 -51 80 -90 105 -144 l34 -73 1 1903
0 1902 -105 0 -105 0 0 -1759z"/>
<path d="M8820 4650 l0 -3080 100 0 100 0 0 3080 0 3080 -100 0 -100 0 0
-3080z"/>
<path d="M9090 4650 l0 -3080 105 0 105 0 0 3080 0 3080 -105 0 -105 0 0
-3080z"/>
<path d="M2508 6342 l-28 -3 1 -452 1 -452 25 55 c14 30 59 156 101 280 73
218 75 229 80 341 5 128 -8 175 -55 206 -27 18 -86 30 -125 25z"/>
<path d="M2315 6299 c-49 -17 -96 -36 -103 -42 -9 -10 -12 -160 -10 -707 l3
-695 103 203 102 202 -2 535 -3 534 -90 -30z"/>
<path d="M2023 6175 l-93 -44 0 -888 0 -888 22 35 c12 19 59 102 105 185 l83
149 0 748 c0 592 -3 748 -12 748 -7 -1 -55 -21 -105 -45z"/>
<path d="M1748 6033 l-98 -55 0 -1039 c0 -603 4 -1039 9 -1039 5 0 12 8 15 17
4 9 47 85 96 168 l90 152 0 926 c0 510 -3 927 -7 926 -5 0 -52 -25 -105 -56z"/>
<path d="M1480 5867 l-95 -63 -2 -1205 c-1 -662 1 -1197 6 -1189 5 8 52 93
105 188 l96 172 0 1080 c0 594 -4 1080 -8 1080 -4 0 -50 -28 -102 -63z"/>
<path d="M1198 5659 l-98 -80 0 -1340 c0 -736 2 -1339 4 -1339 2 0 49 82 105
183 l101 183 0 1237 c0 680 -3 1237 -7 1237 -5 0 -52 -37 -105 -81z"/>
<path d="M830 3616 l0 -2046 100 0 100 0 0 510 0 509 -32 9 c-42 11 -42 38 1
111 l31 52 0 1388 0 1389 -31 13 c-17 7 -57 31 -88 54 -31 22 -62 44 -68 49
-10 6 -13 -405 -13 -2038z"/>
<path d="M4795 5583 c-11 -3 -41 -14 -67 -25 l-48 -20 0 -351 c0 -215 4 -347
9 -341 5 5 41 102 79 215 67 196 102 330 117 445 6 47 4 53 -16 68 -24 16 -37
18 -74 9z"/>
<path d="M4508 5435 l-98 -65 0 -586 c0 -323 2 -585 4 -583 5 6 124 272 167
376 l39 93 0 415 c0 228 -3 415 -7 415 -5 -1 -52 -30 -105 -65z"/>
<path d="M5422 5389 c-17 -124 -51 -264 -112 -458 -28 -90 -50 -170 -48 -179
2 -12 28 6 91 62 l87 77 0 295 c0 162 -1 294 -3 294 -1 0 -8 -41 -15 -91z"/>
<path d="M7178 5453 c-16 -4 -18 -18 -18 -114 0 -60 2 -109 5 -109 3 0 23 36
45 80 61 122 51 165 -32 143z"/>
<path d="M6990 5377 l-95 -42 -2 -320 -3 -320 51 95 c28 52 75 143 105 202
l54 108 0 160 c0 88 -3 160 -7 160 -5 0 -51 -19 -103 -43z"/>
<path d="M4233 5232 l-102 -77 0 -732 c-1 -403 1 -733 3 -733 5 0 101 165 165
281 l41 77 -2 630 -3 631 -102 -77z"/>
<path d="M6713 5230 l-103 -61 1 -492 c0 -325 4 -487 10 -477 5 8 52 94 104
190 l95 175 -2 363 -3 363 -102 -61z"/>
<path d="M2946 5210 c-5 -14 -49 -110 -97 -214 -61 -128 -89 -200 -89 -225 l0
-36 100 100 101 101 -3 149 c-2 103 -6 142 -12 125z"/>
<path d="M6440 5051 l-95 -68 -2 -734 -2 -734 43 120 c23 66 68 181 99 256
l57 136 -2 546 -3 546 -95 -68z"/>
<path d="M3953 5013 l-93 -75 1 -847 c0 -798 1 -845 17 -823 9 13 56 88 104
165 l88 142 0 758 c0 599 -3 757 -12 756 -7 0 -55 -34 -105 -76z"/>
<path d="M7540 4824 l-100 -207 0 -558 c0 -308 2 -559 5 -559 3 0 50 30 105
67 l100 66 0 699 c0 384 -2 698 -5 698 -3 0 -51 -93 -105 -206z"/>
<path d="M6158 4842 l-98 -77 0 -1597 0 -1598 105 0 105 0 0 584 c0 496 -2
589 -15 619 -19 46 -19 145 0 302 12 96 15 293 15 983 0 474 -3 862 -7 862 -5
0 -52 -35 -105 -78z"/>
<path d="M3678 4784 l-98 -85 1 -972 c0 -964 1 -972 19 -929 11 23 58 108 105
187 l85 144 0 870 c0 479 -3 871 -7 871 -5 -1 -52 -39 -105 -86z"/>
<path d="M5887 4614 l-97 -86 0 -1479 0 -1479 100 0 100 0 0 1565 c0 861 -1
1565 -3 1565 -1 0 -46 -39 -100 -86z"/>
<path d="M3402 4542 l-93 -87 1 -1442 0 -1443 100 0 100 0 0 1530 c0 842 -3
1530 -7 1530 -5 0 -50 -40 -101 -88z"/>
<path d="M7263 4245 l-103 -216 0 -350 c0 -223 4 -349 10 -349 15 0 191 112
196 124 2 6 3 235 2 510 l-3 498 -102 -217z"/>
<path d="M5607 4352 l-97 -97 0 -1343 0 -1342 105 0 105 0 0 1440 c0 792 -3
1440 -8 1440 -4 0 -51 -44 -105 -98z"/>
<path d="M3132 4294 l-102 -96 0 -1314 0 -1314 105 0 105 0 0 1410 c0 776 -1
1410 -3 1410 -1 0 -49 -43 -105 -96z"/>
<path d="M5331 4073 l-101 -108 0 -1197 0 -1198 105 0 105 0 0 1305 c0 718 -2
1305 -4 1305 -2 0 -50 -48 -105 -107z"/>
<path d="M2858 4027 l-98 -93 0 -1182 0 -1182 100 0 100 0 0 1275 c0 701 -1
1275 -2 1275 -2 -1 -47 -43 -100 -93z"/>
<path d="M5061 3778 l-101 -113 0 -1047 0 -1048 105 0 105 0 0 1160 c0 638 -2
1160 -5 1160 -2 0 -49 -51 -104 -112z"/>
<path d="M7018 3712 c-125 -293 -129 -308 -126 -444 l3 -119 100 64 100 63 3
297 c1 163 -1 297 -5 297 -5 0 -38 -71 -75 -158z"/>
<path d="M2582 3756 l-102 -103 0 -1042 0 -1041 105 0 105 0 0 1145 c0 630 -1
1145 -3 1145 -2 0 -49 -47 -105 -104z"/>
<path d="M8731 3822 c-6 -10 -51 -51 -100 -91 l-91 -72 0 -1045 0 -1044 105 0
105 0 0 1135 c0 624 -2 1135 -5 1135 -2 0 -9 -8 -14 -18z"/>
<path d="M8368 3524 l-98 -75 0 -940 0 -939 100 0 100 0 0 1015 c0 558 -1
1015 -2 1015 -2 0 -47 -34 -100 -76z"/>
<path d="M2395 3556 c-6 -7 -52 -64 -102 -125 l-93 -112 0 -875 0 -874 105 0
105 0 0 1000 c0 550 -1 1000 -3 1000 -1 0 -7 -6 -12 -14z"/>
<path d="M4783 3441 l-103 -129 0 -871 0 -871 105 0 105 0 0 1000 c0 550 -1
1000 -2 1000 -2 0 -49 -58 -105 -129z"/>
<path d="M8088 3318 l-98 -70 0 -839 0 -839 105 0 105 0 0 910 c0 501 -3 910
-7 909 -5 0 -52 -32 -105 -71z"/>
<path d="M2097 3188 c-19 -24 -64 -83 -100 -132 l-67 -89 0 -699 0 -698 105 0
105 0 0 830 c0 457 -2 830 -4 830 -3 0 -20 -19 -39 -42z"/>
<path d="M4508 3100 l-98 -119 0 -705 0 -706 105 0 105 0 0 825 c0 454 -3 825
-7 825 -5 0 -52 -54 -105 -120z"/>
<path d="M7815 3131 l-100 -67 -3 -747 -2 -747 105 0 105 0 0 815 c0 448 -1
815 -2 814 -2 0 -48 -31 -103 -68z"/>
<path d="M7538 2959 l-98 -60 0 -665 0 -664 105 0 105 0 0 725 c0 399 -3 725
-7 724 -5 0 -52 -28 -105 -60z"/>
<path d="M4274 2803 c-32 -42 -77 -108 -101 -147 l-43 -70 0 -508 0 -508 105
0 105 0 0 655 c0 360 -2 655 -5 655 -3 0 -30 -34 -61 -77z"/>
<path d="M1751 2718 l-101 -141 0 -504 0 -503 105 0 105 0 0 645 c0 355 -2
645 -4 645 -3 0 -50 -64 -105 -142z"/>
<path d="M7263 2800 l-103 -60 0 -585 0 -585 105 0 105 0 0 645 c0 355 -1 645
-2 645 -2 0 -49 -27 -105 -60z"/>
<path d="M6988 2649 l-98 -49 0 -515 0 -515 105 0 105 0 0 565 c0 311 -3 565
-7 564 -5 0 -52 -22 -105 -50z"/>
<path d="M3580 2114 l0 -544 105 0 105 0 -2 502 -3 501 -102 42 -103 43 0
-544z"/>
<path d="M6340 2116 l0 -546 100 0 100 0 0 489 0 489 -67 37 c-38 21 -83 46
-100 57 l-33 20 0 -546z"/>
<path d="M1100 2070 l0 -500 105 0 105 0 0 479 0 479 -91 21 c-50 12 -97 21
-105 21 -12 0 -14 -74 -14 -500z"/>
<path d="M6755 2538 c-26 -14 -58 -22 -92 -22 l-53 0 0 -473 0 -473 105 0 105
0 0 495 c0 390 -3 495 -12 495 -7 -1 -31 -11 -53 -22z"/>
<path d="M3860 2056 l0 -486 105 0 105 0 -2 450 -3 451 -85 30 c-47 17 -93 33
-102 36 -17 5 -18 -22 -18 -481z"/>
<path d="M1380 2040 l0 -470 105 0 105 0 0 456 0 456 -22 -5 c-12 -4 -56 3
-97 13 -41 11 -78 20 -83 20 -4 0 -8 -211 -8 -470z"/>
</g>
</svg>
